<svg width="24" height="24" viewBox="0 0 24 24" fill="none" xmlns="http://www.w3.org/2000/svg">
<circle cx="12" cy="12" r="10" fill="white"/>
<path d="M10.8838 14.3965C10.8955 13.6992 10.9746 13.1484 11.1211 12.7441C11.2676 12.3398 11.5664 11.8916 12.0176 11.3994L13.1689 10.2129C13.6611 9.65625 13.9072 9.05859 13.9072 8.41992C13.9072 7.80469 13.7461 7.32422 13.4238 6.97852C13.1016 6.62695 12.6328 6.45117 12.0176 6.45117C11.4199 6.45117 10.9395 6.60938 10.5762 6.92578C10.2129 7.24219 10.0312 7.66699 10.0312 8.2002H8.40527C8.41699 7.25098 8.75391 6.48633 9.41602 5.90625C10.084 5.32031 10.9512 5.02734 12.0176 5.02734C13.125 5.02734 13.9863 5.32617 14.6016 5.92383C15.2227 6.51562 15.5332 7.33008 15.5332 8.36719C15.5332 9.39258 15.0586 10.4033 14.1094 11.3994L13.1514 12.3486C12.7236 12.8232 12.5098 13.5059 12.5098 14.3965H10.8838ZM10.8135 17.1826C10.8135 16.9189 10.8926 16.6992 11.0508 16.5234C11.2148 16.3418 11.4551 16.251 11.7715 16.251C12.0879 16.251 12.3281 16.3418 12.4922 16.5234C12.6562 16.6992 12.7383 16.9189 12.7383 17.1826C12.7383 17.4463 12.6562 17.666 12.4922 17.8418C12.3281 18.0117 12.0879 18.0967 11.7715 18.0967C11.4551 18.0967 11.2148 18.0117 11.0508 17.8418C10.8926 17.666 10.8135 17.4463 10.8135 17.1826Z" fill="#2196F3"/>
</svg>
